REM DIRINDEX 1\5,1\2\6,1\2\7,1\3\8,1\3\9,1\4\10,1\4\11,1\4\12
REM DIRNAME folder01,folder02,folder03,folder04,folder05,folder06,folder07,folder08,folder09,folder10,folder11,folder12
TITLE ""
FILE "EJE_DB3000_5th_3B_02.mp3" MP3
  TRACK 01 AUDIO
    TITLE "0:"
    INDEX 01 00:00:00
  TRACK 02 AUDIO
    TITLE "10:cjc026_08433"
    INDEX 01 00:00:05
  TRACK 03 AUDIO
    TITLE "0:"
    INDEX 01 00:00:68
  TRACK 04 AUDIO
    TITLE "11:cjc026_08434"
    INDEX 01 00:01:21
  TRACK 05 AUDIO
    TITLE "0:"
    INDEX 01 00:02:22
  TRACK 06 AUDIO
    TITLE "12:cjc026_08435"
    INDEX 01 00:02:47
  TRACK 07 AUDIO
    TITLE "0:"
    INDEX 01 00:03:35
  TRACK 08 AUDIO
    TITLE "10:cjc026_08436"
    INDEX 01 00:03:63
  TRACK 09 AUDIO
    TITLE "0:"
    INDEX 01 00:04:52
  TRACK 10 AUDIO
    TITLE "11:cjc026_08437"
    INDEX 01 00:05:05
  TRACK 11 AUDIO
    TITLE "0:"
    INDEX 01 00:06:08
  TRACK 12 AUDIO
    TITLE "12:cjc026_08438"
    INDEX 01 00:06:33
  TRACK 13 AUDIO
    TITLE "0:"
    INDEX 01 00:07:23
  TRACK 14 AUDIO
    TITLE "10:cjc026_08439"
    INDEX 01 00:07:51
  TRACK 15 AUDIO
    TITLE "0:"
    INDEX 01 00:08:46
  TRACK 16 AUDIO
    TITLE "11:cjc026_08440"
    INDEX 01 00:08:72
  TRACK 17 AUDIO
    TITLE "0:"
    INDEX 01 00:10:00
  TRACK 18 AUDIO
    TITLE "12:cjc026_08441"
    INDEX 01 00:10:25
  TRACK 19 AUDIO
    TITLE "0:"
    INDEX 01 00:11:21
  TRACK 20 AUDIO
    TITLE "10:cjc026_08442"
    INDEX 01 00:11:46
  TRACK 21 AUDIO
    TITLE "0:"
    INDEX 01 00:12:34
  TRACK 22 AUDIO
    TITLE "11:cjc026_08443"
    INDEX 01 00:12:60
  TRACK 23 AUDIO
    TITLE "0:"
    INDEX 01 00:13:53
  TRACK 24 AUDIO
    TITLE "12:cjc026_08444"
    INDEX 01 00:14:04
  TRACK 25 AUDIO
    TITLE "0:"
    INDEX 01 00:14:66
  TRACK 26 AUDIO
    TITLE "10:cjc026_08445"
    INDEX 01 00:15:21
  TRACK 27 AUDIO
    TITLE "0:"
    INDEX 01 00:16:14
  TRACK 28 AUDIO
    TITLE "11:cjc026_08446"
    INDEX 01 00:16:42
  TRACK 29 AUDIO
    TITLE "0:"
    INDEX 01 00:17:47
  TRACK 30 AUDIO
    TITLE "12:cjc026_08447"
    INDEX 01 00:18:01
  TRACK 31 AUDIO
    TITLE "0:"
    INDEX 01 00:18:70
  TRACK 32 AUDIO
    TITLE "10:cjc026_08448"
    INDEX 01 00:19:22
  TRACK 33 AUDIO
    TITLE "0:"
    INDEX 01 00:20:04
  TRACK 34 AUDIO
    TITLE "11:cjc026_08449"
    INDEX 01 00:20:30
  TRACK 35 AUDIO
    TITLE "0:"
    INDEX 01 00:21:33
  TRACK 36 AUDIO
    TITLE "12:cjc026_08450"
    INDEX 01 00:21:58
  TRACK 37 AUDIO
    TITLE "0:"
    INDEX 01 00:22:42
  TRACK 38 AUDIO
    TITLE "10:cjc026_08451"
    INDEX 01 00:22:70
  TRACK 39 AUDIO
    TITLE "0:"
    INDEX 01 00:23:59
  TRACK 40 AUDIO
    TITLE "11:cjc026_08452"
    INDEX 01 00:24:10
  TRACK 41 AUDIO
    TITLE "0:"
    INDEX 01 00:25:11
  TRACK 42 AUDIO
    TITLE "12:cjc026_08453"
    INDEX 01 00:25:39
  TRACK 43 AUDIO
    TITLE "0:"
    INDEX 01 00:26:28
  TRACK 44 AUDIO
    TITLE "10:cjc026_08454"
    INDEX 01 00:26:54
  TRACK 45 AUDIO
    TITLE "0:"
    INDEX 01 00:27:55
  TRACK 46 AUDIO
    TITLE "11:cjc026_08455"
    INDEX 01 00:28:06
  TRACK 47 AUDIO
    TITLE "0:"
    INDEX 01 00:28:70
  TRACK 48 AUDIO
    TITLE "12:cjc026_08456"
    INDEX 01 00:29:21
  TRACK 49 AUDIO
    TITLE "0:"
    INDEX 01 00:30:22
  TRACK 50 AUDIO
    TITLE "10:cjc026_08457"
    INDEX 01 00:30:48
  TRACK 51 AUDIO
    TITLE "0:"
    INDEX 01 00:31:43
  TRACK 52 AUDIO
    TITLE "11:cjc026_08458"
    INDEX 01 00:31:71
  TRACK 53 AUDIO
    TITLE "0:"
    INDEX 01 00:32:72
  TRACK 54 AUDIO
    TITLE "12:cjc026_08459"
    INDEX 01 00:33:24
  TRACK 55 AUDIO
    TITLE "0:"
    INDEX 01 00:34:18
  TRACK 56 AUDIO
    TITLE "10:cjc026_08460"
    INDEX 01 00:34:45
  TRACK 57 AUDIO
    TITLE "0:"
    INDEX 01 00:35:37
  TRACK 58 AUDIO
    TITLE "11:cjc026_08461"
    INDEX 01 00:35:68
  TRACK 59 AUDIO
    TITLE "0:"
    INDEX 01 00:36:72
  TRACK 60 AUDIO
    TITLE "12:cjc026_08462"
    INDEX 01 00:37:26
  TRACK 61 AUDIO
    TITLE "0:"
    INDEX 01 00:38:16
  TRACK 62 AUDIO
    TITLE "10:cjc026_08463"
    INDEX 01 00:38:45
  TRACK 63 AUDIO
    TITLE "0:"
    INDEX 01 00:39:41
  TRACK 64 AUDIO
    TITLE "11:cjc026_08464"
    INDEX 01 00:39:66
  TRACK 65 AUDIO
    TITLE "0:"
    INDEX 01 00:40:73
  TRACK 66 AUDIO
    TITLE "12:cjc026_08465"
    INDEX 01 00:41:26
  TRACK 67 AUDIO
    TITLE "0:"
    INDEX 01 00:42:19
